<mxfile host="app.diagrams.net" agent="Mozilla/5.0 (Windows NT 10.0; Win64; x64) AppleWebKit/537.36 (KHTML, like Gecko) Chrome/130.0.0.0 Safari/537.36 Edg/130.0.0.0" version="24.8.3">
  <diagram id="6a731a19-8d31-9384-78a2-239565b7b9f0" name="Page-1">
    <mxGraphModel dx="2031" dy="602" grid="1" gridSize="10" guides="1" tooltips="1" connect="1" arrows="1" fold="1" page="1" pageScale="1" pageWidth="1169" pageHeight="827" background="none" math="0" shadow="0">
      <root>
        <mxCell id="0" />
        <mxCell id="1" parent="0" />
        <mxCell id="Yox9Pzst5WcYOQBH_O4A-12" value="" style="edgeStyle=entityRelationEdgeStyle;rounded=1;orthogonalLoop=1;jettySize=auto;html=1;" edge="1" parent="1" source="6wsHn2F7LGI-CSXjf6Uy-55" target="6wsHn2F7LGI-CSXjf6Uy-56">
          <mxGeometry relative="1" as="geometry" />
        </mxCell>
        <mxCell id="Yox9Pzst5WcYOQBH_O4A-19" style="edgeStyle=orthogonalEdgeStyle;curved=1;rounded=1;orthogonalLoop=1;jettySize=auto;html=1;exitX=1;exitY=0.5;exitDx=0;exitDy=0;entryX=0;entryY=0.5;entryDx=0;entryDy=0;" edge="1" parent="1" source="6wsHn2F7LGI-CSXjf6Uy-55" target="Yox9Pzst5WcYOQBH_O4A-1">
          <mxGeometry relative="1" as="geometry">
            <Array as="points">
              <mxPoint x="240" y="360" />
              <mxPoint x="240" y="480" />
            </Array>
          </mxGeometry>
        </mxCell>
        <mxCell id="6wsHn2F7LGI-CSXjf6Uy-55" value="&#39;A&#39;" style="ellipse;whiteSpace=wrap;html=1;aspect=fixed;rounded=1;" parent="1" vertex="1">
          <mxGeometry x="120" y="320" width="80" height="80" as="geometry" />
        </mxCell>
        <mxCell id="Yox9Pzst5WcYOQBH_O4A-13" value="" style="edgeStyle=entityRelationEdgeStyle;rounded=1;orthogonalLoop=1;jettySize=auto;html=1;" edge="1" parent="1" source="6wsHn2F7LGI-CSXjf6Uy-56" target="6wsHn2F7LGI-CSXjf6Uy-58">
          <mxGeometry relative="1" as="geometry" />
        </mxCell>
        <mxCell id="Yox9Pzst5WcYOQBH_O4A-18" style="edgeStyle=orthogonalEdgeStyle;curved=1;rounded=1;orthogonalLoop=1;jettySize=auto;html=1;exitX=1;exitY=0.5;exitDx=0;exitDy=0;entryX=0;entryY=0.5;entryDx=0;entryDy=0;" edge="1" parent="1" source="6wsHn2F7LGI-CSXjf6Uy-56" target="Yox9Pzst5WcYOQBH_O4A-1">
          <mxGeometry relative="1" as="geometry">
            <Array as="points">
              <mxPoint x="360" y="360" />
              <mxPoint x="360" y="480" />
            </Array>
          </mxGeometry>
        </mxCell>
        <mxCell id="Yox9Pzst5WcYOQBH_O4A-25" style="edgeStyle=orthogonalEdgeStyle;curved=1;rounded=1;orthogonalLoop=1;jettySize=auto;html=1;exitX=1;exitY=0.5;exitDx=0;exitDy=0;entryX=0;entryY=0.5;entryDx=0;entryDy=0;" edge="1" parent="1" source="6wsHn2F7LGI-CSXjf6Uy-56" target="6wsHn2F7LGI-CSXjf6Uy-55">
          <mxGeometry relative="1" as="geometry">
            <Array as="points">
              <mxPoint x="340" y="360" />
              <mxPoint x="340" y="280" />
              <mxPoint x="100" y="280" />
              <mxPoint x="100" y="360" />
            </Array>
          </mxGeometry>
        </mxCell>
        <mxCell id="6wsHn2F7LGI-CSXjf6Uy-56" value="&#39;T&#39;" style="ellipse;whiteSpace=wrap;html=1;aspect=fixed;rounded=1;" parent="1" vertex="1">
          <mxGeometry x="240" y="320" width="80" height="80" as="geometry" />
        </mxCell>
        <mxCell id="Yox9Pzst5WcYOQBH_O4A-20" style="edgeStyle=orthogonalEdgeStyle;curved=1;rounded=1;orthogonalLoop=1;jettySize=auto;html=1;exitX=1;exitY=0.5;exitDx=0;exitDy=0;entryX=0;entryY=0.5;entryDx=0;entryDy=0;" edge="1" parent="1" source="6wsHn2F7LGI-CSXjf6Uy-58" target="Yox9Pzst5WcYOQBH_O4A-1">
          <mxGeometry relative="1" as="geometry">
            <mxPoint x="490" y="480" as="targetPoint" />
            <Array as="points">
              <mxPoint x="460" y="360" />
              <mxPoint x="460" y="480" />
            </Array>
          </mxGeometry>
        </mxCell>
        <mxCell id="Yox9Pzst5WcYOQBH_O4A-21" style="edgeStyle=orthogonalEdgeStyle;curved=1;rounded=1;orthogonalLoop=1;jettySize=auto;html=1;exitX=1;exitY=0.5;exitDx=0;exitDy=0;entryX=0;entryY=0.5;entryDx=0;entryDy=0;" edge="1" parent="1" source="6wsHn2F7LGI-CSXjf6Uy-58" target="6wsHn2F7LGI-CSXjf6Uy-60">
          <mxGeometry relative="1" as="geometry" />
        </mxCell>
        <mxCell id="6wsHn2F7LGI-CSXjf6Uy-58" value="&#39;+&#39;" style="ellipse;whiteSpace=wrap;html=1;aspect=fixed;rounded=1;" parent="1" vertex="1">
          <mxGeometry x="360" y="320" width="80" height="80" as="geometry" />
        </mxCell>
        <mxCell id="6wsHn2F7LGI-CSXjf6Uy-60" value="ATProc" style="ellipse;whiteSpace=wrap;html=1;aspect=fixed;rounded=1;" parent="1" vertex="1">
          <mxGeometry x="560" y="320" width="80" height="80" as="geometry" />
        </mxCell>
        <mxCell id="Yox9Pzst5WcYOQBH_O4A-1" value="&#39;\0&#39;" style="ellipse;whiteSpace=wrap;html=1;aspect=fixed;rounded=1;" vertex="1" parent="1">
          <mxGeometry x="560" y="440" width="80" height="80" as="geometry" />
        </mxCell>
        <mxCell id="Yox9Pzst5WcYOQBH_O4A-2" value="&#39;\n&#39;" style="ellipse;whiteSpace=wrap;html=1;aspect=fixed;rounded=1;" vertex="1" parent="1">
          <mxGeometry x="560" y="560" width="80" height="80" as="geometry" />
        </mxCell>
        <mxCell id="Yox9Pzst5WcYOQBH_O4A-3" value="others" style="ellipse;whiteSpace=wrap;html=1;aspect=fixed;rounded=1;" vertex="1" parent="1">
          <mxGeometry x="-40" y="320" width="80" height="80" as="geometry" />
        </mxCell>
        <mxCell id="Yox9Pzst5WcYOQBH_O4A-22" value="&#39;T&#39;" style="text;html=1;align=center;verticalAlign=middle;resizable=0;points=[];autosize=1;strokeColor=none;fillColor=none;" vertex="1" parent="1">
          <mxGeometry x="200" y="328" width="40" height="30" as="geometry" />
        </mxCell>
        <mxCell id="Yox9Pzst5WcYOQBH_O4A-23" value="&#39;+&#39;" style="text;html=1;align=center;verticalAlign=middle;resizable=0;points=[];autosize=1;strokeColor=none;fillColor=none;" vertex="1" parent="1">
          <mxGeometry x="320" y="328" width="40" height="30" as="geometry" />
        </mxCell>
        <mxCell id="Yox9Pzst5WcYOQBH_O4A-24" value="Others" style="text;html=1;align=center;verticalAlign=middle;resizable=0;points=[];autosize=1;strokeColor=none;fillColor=none;" vertex="1" parent="1">
          <mxGeometry x="470" y="328" width="60" height="30" as="geometry" />
        </mxCell>
        <mxCell id="Yox9Pzst5WcYOQBH_O4A-26" style="edgeStyle=orthogonalEdgeStyle;curved=1;rounded=1;orthogonalLoop=1;jettySize=auto;html=1;exitX=1;exitY=0.5;exitDx=0;exitDy=0;entryX=0;entryY=0.5;entryDx=0;entryDy=0;" edge="1" parent="1" source="6wsHn2F7LGI-CSXjf6Uy-55" target="6wsHn2F7LGI-CSXjf6Uy-55">
          <mxGeometry relative="1" as="geometry">
            <Array as="points">
              <mxPoint x="210" y="360" />
              <mxPoint x="210" y="300" />
              <mxPoint x="110" y="300" />
              <mxPoint x="110" y="360" />
            </Array>
          </mxGeometry>
        </mxCell>
      </root>
    </mxGraphModel>
  </diagram>
</mxfile>
